<svg xmlns="http://www.w3.org/2000/svg" xmlns:xlink="http://www.w3.org/1999/xlink" version="1.1" id="Your_Icon" x="0px" y="0px" width="100px" height="100px" viewBox="0 0 100 100" enable-background="new 0 0 100 100" xml:space="preserve">
<path d="M88.653,36.228c-0.002,0-0.005,0-0.007,0c-0.007,0-0.014,0-0.021,0l-27.928,0.229l-8.937-26.46  c-0.346-1.023-1.306-1.711-2.382-1.711c-0.009,0-0.017,0-0.026,0c-1.088,0.011-2.045,0.721-2.374,1.758l-8.411,26.632L10.64,36.999  c-1.088,0.013-2.044,0.723-2.371,1.761c-0.325,1.038,0.053,2.168,0.938,2.8l22.729,16.23l-8.323,26.659  c-0.324,1.039,0.056,2.168,0.942,2.799c0.437,0.311,0.948,0.467,1.458,0.467c0.526,0,1.051-0.164,1.495-0.492l22.459-16.602  l22.784,16.154c0.436,0.309,0.945,0.463,1.454,0.463c0.527,0,1.054-0.164,1.498-0.494c0.874-0.648,1.233-1.785,0.888-2.818  l-8.849-26.49l22.363-16.645c0.639-0.456,1.056-1.204,1.056-2.048C91.163,37.355,90.041,36.23,88.653,36.228z"/>
</svg>